{
  "accessors": [
    {
      "bufferView": 2,
      "componentType": 5126,
      "count": 2077,
      "max": [
        4.722301006317139,
        4.714848041534424,
        4.029644012451172
      ],
      "min": [
        -4.712892055511475,
        -4.7023820877075195,
        -4.02761697769165
      ],
      "type": "VEC3"
    },
    {
      "bufferView": 2,
      "byteOffset": 24924,
      "componentType": 5126,
      "count": 2077,
      "max": [
        0.9987786412239075,
        0.9996234774589539,
        0.9999345541000366
      ],
      "min": [
        -0.9987810254096985,
        -0.9996234774589539,
        -0.9999345541000366
      ],
      "type": "VEC3"
    },
    {
      "bufferView": 1,
      "componentType": 5126,
      "count": 2077,
      "max": [
        1.0,
        1.0
      ],
      "min": [
        0.0,
        0.0
      ],
      "type": "VEC2"
    },
    {
      "bufferView": 0,
      "componentType": 5125,
      "count": 11520,
      "type": "SCALAR"
    },
    {
      "bufferView": 2,
      "byteOffset": 49848,
      "componentType": 5126,
      "count": 8,
      "max": [
        11.414948463439941,
        10.966567039489746,
        4.071146011352539
      ],
      "min": [
        -11.41085433959961,
        -10.961142539978027,
        -4.035715103149414
      ],
      "type": "VEC3"
    },
    {
      "bufferView": 2,
      "byteOffset": 49944,
      "componentType": 5126,
      "count": 8,
      "max": [
        0.15189361572265625,
        0.20379143953323364,
        -0.9671593904495239
      ],
      "min": [
        0.15189361572265625,
        0.20379143953323364,
        -0.9671593904495239
      ],
      "type": "VEC3"
    },
    {
      "bufferView": 1,
      "byteOffset": 16616,
      "componentType": 5126,
      "count": 8,
      "max": [
        1.0,
        1.0
      ],
      "min": [
        0.0,
        0.0
      ],
      "type": "VEC2"
    },
    {
      "bufferView": 0,
      "byteOffset": 46080,
      "componentType": 5125,
      "count": 18,
      "type": "SCALAR"
    }
  ],
  "asset": {
    "extras": {
      "author": "AstroRiah (https://sketchfab.com/AstroRiah)",
      "license": "CC-BY-4.0 (http://creativecommons.org/licenses/by/4.0/)",
      "source": "https://sketchfab.com/3d-models/saturn-ringed-planet-09b253b67eac4e09b3112a0a79464f55",
      "title": "Saturn - Ringed Planet"
    },
    "generator": "Sketchfab-0.6.0",
    "version": "2.0"
  },
  "bufferViews": [
    {
      "buffer": 0,
      "byteLength": 46152,
      "name": "floatBufferViews",
      "target": 34963
    },
    {
      "buffer": 0,
      "byteLength": 16680,
      "byteOffset": 46152,
      "byteStride": 8,
      "name": "floatBufferViews",
      "target": 34962
    },
    {
      "buffer": 0,
      "byteLength": 50040,
      "byteOffset": 62832,
      "byteStride": 12,
      "name": "floatBufferViews",
      "target": 34962
    }
  ],
  "buffers": [
    {
      "byteLength": 112872,
      "uri": "scene.bin"
    }
  ],
  "images": [
    {
      "uri": "textures/Material.002_baseColor.jpeg"
    },
    {
      "uri": "textures/stock_image___saturn_rings_by_alpha_element_d6ifske-fullview_baseColor.png"
    }
  ],
  "materials": [
    {
      "doubleSided": true,
      "name": "Material.002",
      "pbrMetallicRoughness": {
        "baseColorTexture": {
          "index": 0
        },
        "metallicFactor": 0.0,
        "roughnessFactor": 0.6
      }
    },
    {
      "alphaMode": "BLEND",
      "doubleSided": true,
      "name": "stock_image___saturn_rings_by_alpha_element_d6ifske-fullview",
      "pbrMetallicRoughness": {
        "baseColorFactor": [
          1.0,
          1.0,
          1.0,
          0.5714303129304774
        ],
        "baseColorTexture": {
          "index": 1
        },
        "metallicFactor": 0.0,
        "roughnessFactor": 0.6
      }
    }
  ],
  "meshes": [
    {
      "name": "Object_0",
      "primitives": [
        {
          "attributes": {
            "NORMAL": 1,
            "POSITION": 0,
            "TEXCOORD_0": 2
          },
          "indices": 3,
          "material": 0,
          "mode": 4
        }
      ]
    },
    {
      "name": "Object_1",
      "primitives": [
        {
          "attributes": {
            "NORMAL": 5,
            "POSITION": 4,
            "TEXCOORD_0": 6
          },
          "indices": 7,
          "material": 1,
          "mode": 4
        }
      ]
    }
  ],
  "nodes": [
    {
      "children": [
        1
      ],
      "matrix": [
        11.381327629089355,
        0.0,
        0.0,
        0.0,
        0.0,
        2.5271623969234892e-15,
        -11.381327629089355,
        0.0,
        0.0,
        11.381327629089355,
        2.5271623969234892e-15,
        0.0,
        0.0,
        0.0,
        0.0,
        1.0
      ],
      "name": "Sketchfab_model"
    },
    {
      "children": [
        2,
        3
      ],
      "name": "95c8d0390a3c4b159a2f451755a50eff.obj.cleaner.materialmerger.gles"
    },
    {
      "mesh": 0,
      "name": "Object_2"
    },
    {
      "mesh": 1,
      "name": "Object_3"
    }
  ],
  "samplers": [
    {
      "magFilter": 9729,
      "minFilter": 9987,
      "wrapS": 10497,
      "wrapT": 10497
    }
  ],
  "scene": 0,
  "scenes": [
    {
      "name": "Sketchfab_Scene",
      "nodes": [
        0
      ]
    }
  ],
  "textures": [
    {
      "sampler": 0,
      "source": 0
    },
    {
      "sampler": 0,
      "source": 1
    }
  ]
}
